<svg width="750" height="497" viewBox="0 0 750 497" fill="none" xmlns="http://www.w3.org/2000/svg">
<g opacity="0.5">
<path opacity="0.5" d="M29.02 20.62C29.02 21.6 28.22 22.4 27.24 22.4C26.26 22.4 25.46 21.6 25.46 20.62C25.46 19.64 26.26 18.84 27.24 18.84C28.22 18.84 29.02 19.64 29.02 20.62Z" fill="white"/>
<path opacity="0.5" d="M42.55 22.4C43.5331 22.4 44.33 21.6031 44.33 20.62C44.33 19.6369 43.5331 18.84 42.55 18.84C41.567 18.84 40.77 19.6369 40.77 20.62C40.77 21.6031 41.567 22.4 42.55 22.4Z" fill="white"/>
<path opacity="0.5" d="M57.8501 22.4C58.8331 22.4 59.6301 21.6031 59.6301 20.62C59.6301 19.6369 58.8331 18.84 57.8501 18.84C56.867 18.84 56.0701 19.6369 56.0701 20.62C56.0701 21.6031 56.867 22.4 57.8501 22.4Z" fill="white"/>
<path opacity="0.5" d="M74.9399 20.62C74.9399 21.6 74.1399 22.4 73.1599 22.4C72.1799 22.4 71.3799 21.6 71.3799 20.62C71.3799 19.64 72.1799 18.84 73.1599 18.84C74.1399 18.84 74.9399 19.64 74.9399 20.62Z" fill="white"/>
<path opacity="0.5" d="M88.4599 22.4C89.443 22.4 90.2399 21.6031 90.2399 20.62C90.2399 19.6369 89.443 18.84 88.4599 18.84C87.4769 18.84 86.6799 19.6369 86.6799 20.62C86.6799 21.6031 87.4769 22.4 88.4599 22.4Z" fill="white"/>
<path opacity="0.5" d="M103.77 22.4C104.753 22.4 105.55 21.6031 105.55 20.62C105.55 19.6369 104.753 18.84 103.77 18.84C102.787 18.84 101.99 19.6369 101.99 20.62C101.99 21.6031 102.787 22.4 103.77 22.4Z" fill="white"/>
<path opacity="0.5" d="M119.07 22.4C120.053 22.4 120.85 21.6031 120.85 20.62C120.85 19.6369 120.053 18.84 119.07 18.84C118.087 18.84 117.29 19.6369 117.29 20.62C117.29 21.6031 118.087 22.4 119.07 22.4Z" fill="white"/>
<path opacity="0.5" d="M134.38 22.4C135.363 22.4 136.16 21.6031 136.16 20.62C136.16 19.6369 135.363 18.84 134.38 18.84C133.397 18.84 132.6 19.6369 132.6 20.62C132.6 21.6031 133.397 22.4 134.38 22.4Z" fill="white"/>
<path opacity="0.5" d="M29.02 35.92C29.02 36.9 28.22 37.7 27.24 37.7C26.26 37.7 25.46 36.9 25.46 35.92C25.46 34.94 26.26 34.14 27.24 34.14C28.22 34.15 29.02 34.94 29.02 35.92Z" fill="white"/>
<path opacity="0.5" d="M42.55 37.7C43.5331 37.7 44.33 36.9031 44.33 35.92C44.33 34.9369 43.5331 34.14 42.55 34.14C41.567 34.14 40.77 34.9369 40.77 35.92C40.77 36.9031 41.567 37.7 42.55 37.7Z" fill="white"/>
<path opacity="0.5" d="M57.8501 37.7C58.8331 37.7 59.6301 36.9031 59.6301 35.92C59.6301 34.9369 58.8331 34.14 57.8501 34.14C56.867 34.14 56.0701 34.9369 56.0701 35.92C56.0701 36.9031 56.867 37.7 57.8501 37.7Z" fill="white"/>
<path opacity="0.5" d="M74.9399 35.92C74.9399 36.9 74.1399 37.7 73.1599 37.7C72.1799 37.7 71.3799 36.9 71.3799 35.92C71.3799 34.94 72.1799 34.14 73.1599 34.14C74.1399 34.15 74.9399 34.94 74.9399 35.92Z" fill="white"/>
<path opacity="0.5" d="M88.4599 37.7C89.443 37.7 90.2399 36.9031 90.2399 35.92C90.2399 34.9369 89.443 34.14 88.4599 34.14C87.4769 34.14 86.6799 34.9369 86.6799 35.92C86.6799 36.9031 87.4769 37.7 88.4599 37.7Z" fill="white"/>
<path opacity="0.5" d="M103.77 37.7C104.753 37.7 105.55 36.9031 105.55 35.92C105.55 34.9369 104.753 34.14 103.77 34.14C102.787 34.14 101.99 34.9369 101.99 35.92C101.99 36.9031 102.787 37.7 103.77 37.7Z" fill="white"/>
<path opacity="0.5" d="M119.07 37.7C120.053 37.7 120.85 36.9031 120.85 35.92C120.85 34.9369 120.053 34.14 119.07 34.14C118.087 34.14 117.29 34.9369 117.29 35.92C117.29 36.9031 118.087 37.7 119.07 37.7Z" fill="white"/>
<path opacity="0.5" d="M134.38 37.7C135.363 37.7 136.16 36.9031 136.16 35.92C136.16 34.9369 135.363 34.14 134.38 34.14C133.397 34.14 132.6 34.9369 132.6 35.92C132.6 36.9031 133.397 37.7 134.38 37.7Z" fill="white"/>
<path opacity="0.5" d="M29.02 51.23C29.02 52.21 28.22 53.01 27.24 53.01C26.26 53.01 25.46 52.21 25.46 51.23C25.46 50.25 26.26 49.45 27.24 49.45C28.22 49.45 29.02 50.25 29.02 51.23Z" fill="white"/>
<path opacity="0.5" d="M42.55 53.01C43.5331 53.01 44.33 52.2131 44.33 51.23C44.33 50.2469 43.5331 49.45 42.55 49.45C41.567 49.45 40.77 50.2469 40.77 51.23C40.77 52.2131 41.567 53.01 42.55 53.01Z" fill="white"/>
<path opacity="0.5" d="M57.8501 53.01C58.8331 53.01 59.6301 52.2131 59.6301 51.23C59.6301 50.2469 58.8331 49.45 57.8501 49.45C56.867 49.45 56.0701 50.2469 56.0701 51.23C56.0701 52.2131 56.867 53.01 57.8501 53.01Z" fill="white"/>
<path opacity="0.5" d="M74.9399 51.23C74.9399 52.21 74.1399 53.01 73.1599 53.01C72.1799 53.01 71.3799 52.21 71.3799 51.23C71.3799 50.25 72.1799 49.45 73.1599 49.45C74.1399 49.45 74.9399 50.25 74.9399 51.23Z" fill="white"/>
<path opacity="0.5" d="M88.4599 53.01C89.443 53.01 90.2399 52.2131 90.2399 51.23C90.2399 50.2469 89.443 49.45 88.4599 49.45C87.4769 49.45 86.6799 50.2469 86.6799 51.23C86.6799 52.2131 87.4769 53.01 88.4599 53.01Z" fill="white"/>
<path opacity="0.5" d="M103.77 53.01C104.753 53.01 105.55 52.2131 105.55 51.23C105.55 50.2469 104.753 49.45 103.77 49.45C102.787 49.45 101.99 50.2469 101.99 51.23C101.99 52.2131 102.787 53.01 103.77 53.01Z" fill="white"/>
<path opacity="0.5" d="M119.07 53.01C120.053 53.01 120.85 52.2131 120.85 51.23C120.85 50.2469 120.053 49.45 119.07 49.45C118.087 49.45 117.29 50.2469 117.29 51.23C117.29 52.2131 118.087 53.01 119.07 53.01Z" fill="white"/>
<path opacity="0.5" d="M134.38 53.01C135.363 53.01 136.16 52.2131 136.16 51.23C136.16 50.2469 135.363 49.45 134.38 49.45C133.397 49.45 132.6 50.2469 132.6 51.23C132.6 52.2131 133.397 53.01 134.38 53.01Z" fill="white"/>
<path opacity="0.5" d="M29.02 66.53C29.02 67.51 28.22 68.31 27.24 68.31C26.26 68.31 25.46 67.51 25.46 66.53C25.46 65.55 26.26 64.75 27.24 64.75C28.22 64.76 29.02 65.55 29.02 66.53Z" fill="white"/>
<path opacity="0.5" d="M42.55 68.31C43.5331 68.31 44.33 67.5131 44.33 66.53C44.33 65.5469 43.5331 64.75 42.55 64.75C41.567 64.75 40.77 65.5469 40.77 66.53C40.77 67.5131 41.567 68.31 42.55 68.31Z" fill="white"/>
<path opacity="0.5" d="M57.8501 68.31C58.8331 68.31 59.6301 67.5131 59.6301 66.53C59.6301 65.5469 58.8331 64.75 57.8501 64.75C56.867 64.75 56.0701 65.5469 56.0701 66.53C56.0701 67.5131 56.867 68.31 57.8501 68.31Z" fill="white"/>
<path opacity="0.5" d="M74.9399 66.53C74.9399 67.51 74.1399 68.31 73.1599 68.31C72.1799 68.31 71.3799 67.51 71.3799 66.53C71.3799 65.55 72.1799 64.75 73.1599 64.75C74.1399 64.76 74.9399 65.55 74.9399 66.53Z" fill="white"/>
<path opacity="0.5" d="M88.4599 68.31C89.443 68.31 90.2399 67.5131 90.2399 66.53C90.2399 65.5469 89.443 64.75 88.4599 64.75C87.4769 64.75 86.6799 65.5469 86.6799 66.53C86.6799 67.5131 87.4769 68.31 88.4599 68.31Z" fill="white"/>
<path opacity="0.5" d="M103.77 68.31C104.753 68.31 105.55 67.5131 105.55 66.53C105.55 65.5469 104.753 64.75 103.77 64.75C102.787 64.75 101.99 65.5469 101.99 66.53C101.99 67.5131 102.787 68.31 103.77 68.31Z" fill="white"/>
<path opacity="0.5" d="M119.07 68.31C120.053 68.31 120.85 67.5131 120.85 66.53C120.85 65.5469 120.053 64.75 119.07 64.75C118.087 64.75 117.29 65.5469 117.29 66.53C117.29 67.5131 118.087 68.31 119.07 68.31Z" fill="white"/>
<path opacity="0.5" d="M134.38 68.31C135.363 68.31 136.16 67.5131 136.16 66.53C136.16 65.5469 135.363 64.75 134.38 64.75C133.397 64.75 132.6 65.5469 132.6 66.53C132.6 67.5131 133.397 68.31 134.38 68.31Z" fill="white"/>
<path opacity="0.5" d="M29.02 81.84C29.02 82.82 28.22 83.62 27.24 83.62C26.26 83.62 25.46 82.82 25.46 81.84C25.46 80.86 26.26 80.06 27.24 80.06C28.22 80.06 29.02 80.86 29.02 81.84Z" fill="white"/>
<path opacity="0.5" d="M42.55 83.62C43.5331 83.62 44.33 82.8231 44.33 81.84C44.33 80.8569 43.5331 80.06 42.55 80.06C41.567 80.06 40.77 80.8569 40.77 81.84C40.77 82.8231 41.567 83.62 42.55 83.62Z" fill="white"/>
<path opacity="0.5" d="M57.8501 83.62C58.8331 83.62 59.6301 82.8231 59.6301 81.84C59.6301 80.8569 58.8331 80.06 57.8501 80.06C56.867 80.06 56.0701 80.8569 56.0701 81.84C56.0701 82.8231 56.867 83.62 57.8501 83.62Z" fill="white"/>
<path opacity="0.5" d="M74.9399 81.84C74.9399 82.82 74.1399 83.62 73.1599 83.62C72.1799 83.62 71.3799 82.82 71.3799 81.84C71.3799 80.86 72.1799 80.06 73.1599 80.06C74.1399 80.06 74.9399 80.86 74.9399 81.84Z" fill="white"/>
<path opacity="0.5" d="M88.4599 83.62C89.443 83.62 90.2399 82.8231 90.2399 81.84C90.2399 80.8569 89.443 80.06 88.4599 80.06C87.4769 80.06 86.6799 80.8569 86.6799 81.84C86.6799 82.8231 87.4769 83.62 88.4599 83.62Z" fill="white"/>
<path opacity="0.5" d="M103.77 83.62C104.753 83.62 105.55 82.8231 105.55 81.84C105.55 80.8569 104.753 80.06 103.77 80.06C102.787 80.06 101.99 80.8569 101.99 81.84C101.99 82.8231 102.787 83.62 103.77 83.62Z" fill="white"/>
<path opacity="0.5" d="M119.07 83.62C120.053 83.62 120.85 82.8231 120.85 81.84C120.85 80.8569 120.053 80.06 119.07 80.06C118.087 80.06 117.29 80.8569 117.29 81.84C117.29 82.8231 118.087 83.62 119.07 83.62Z" fill="white"/>
<path opacity="0.5" d="M134.38 83.62C135.363 83.62 136.16 82.8231 136.16 81.84C136.16 80.8569 135.363 80.06 134.38 80.06C133.397 80.06 132.6 80.8569 132.6 81.84C132.6 82.8231 133.397 83.62 134.38 83.62Z" fill="white"/>
<path opacity="0.5" d="M29.02 97.15C29.02 98.13 28.22 98.93 27.24 98.93C26.26 98.93 25.46 98.13 25.46 97.15C25.46 96.17 26.26 95.37 27.24 95.37C28.22 95.37 29.02 96.16 29.02 97.15Z" fill="white"/>
<path opacity="0.5" d="M42.55 98.93C43.5331 98.93 44.33 98.1331 44.33 97.15C44.33 96.1669 43.5331 95.37 42.55 95.37C41.567 95.37 40.77 96.1669 40.77 97.15C40.77 98.1331 41.567 98.93 42.55 98.93Z" fill="white"/>
<path opacity="0.5" d="M57.8501 98.93C58.8331 98.93 59.6301 98.1331 59.6301 97.15C59.6301 96.1669 58.8331 95.37 57.8501 95.37C56.867 95.37 56.0701 96.1669 56.0701 97.15C56.0701 98.1331 56.867 98.93 57.8501 98.93Z" fill="white"/>
<path opacity="0.5" d="M74.9399 97.15C74.9399 98.13 74.1399 98.93 73.1599 98.93C72.1799 98.93 71.3799 98.13 71.3799 97.15C71.3799 96.17 72.1799 95.37 73.1599 95.37C74.1399 95.37 74.9399 96.16 74.9399 97.15Z" fill="white"/>
<path opacity="0.5" d="M88.4599 98.93C89.443 98.93 90.2399 98.1331 90.2399 97.15C90.2399 96.1669 89.443 95.37 88.4599 95.37C87.4769 95.37 86.6799 96.1669 86.6799 97.15C86.6799 98.1331 87.4769 98.93 88.4599 98.93Z" fill="white"/>
<path opacity="0.5" d="M103.77 98.93C104.753 98.93 105.55 98.1331 105.55 97.15C105.55 96.1669 104.753 95.37 103.77 95.37C102.787 95.37 101.99 96.1669 101.99 97.15C101.99 98.1331 102.787 98.93 103.77 98.93Z" fill="white"/>
<path opacity="0.5" d="M119.07 98.93C120.053 98.93 120.85 98.1331 120.85 97.15C120.85 96.1669 120.053 95.37 119.07 95.37C118.087 95.37 117.29 96.1669 117.29 97.15C117.29 98.1331 118.087 98.93 119.07 98.93Z" fill="white"/>
<path opacity="0.5" d="M134.38 98.93C135.363 98.93 136.16 98.1331 136.16 97.15C136.16 96.1669 135.363 95.37 134.38 95.37C133.397 95.37 132.6 96.1669 132.6 97.15C132.6 98.1331 133.397 98.93 134.38 98.93Z" fill="white"/>
</g>
<g opacity="0.5">
<path opacity="0.5" d="M636.91 288.48C637.893 288.48 638.69 287.683 638.69 286.7C638.69 285.717 637.893 284.92 636.91 284.92C635.927 284.92 635.13 285.717 635.13 286.7C635.13 287.683 635.927 288.48 636.91 288.48Z" fill="white"/>
<path opacity="0.5" d="M636.91 303.79C637.893 303.79 638.69 302.993 638.69 302.01C638.69 301.027 637.893 300.23 636.91 300.23C635.927 300.23 635.13 301.027 635.13 302.01C635.13 302.993 635.927 303.79 636.91 303.79Z" fill="white"/>
<path opacity="0.5" d="M636.91 319.09C637.893 319.09 638.69 318.293 638.69 317.31C638.69 316.327 637.893 315.53 636.91 315.53C635.927 315.53 635.13 316.327 635.13 317.31C635.13 318.293 635.927 319.09 636.91 319.09Z" fill="white"/>
<path opacity="0.5" d="M636.91 334.4C637.893 334.4 638.69 333.603 638.69 332.62C638.69 331.637 637.893 330.84 636.91 330.84C635.927 330.84 635.13 331.637 635.13 332.62C635.13 333.603 635.927 334.4 636.91 334.4Z" fill="white"/>
<path opacity="0.5" d="M636.91 349.7C637.893 349.7 638.69 348.903 638.69 347.92C638.69 346.937 637.893 346.14 636.91 346.14C635.927 346.14 635.13 346.937 635.13 347.92C635.13 348.903 635.927 349.7 636.91 349.7Z" fill="white"/>
<path opacity="0.5" d="M636.91 365.01C637.893 365.01 638.69 364.213 638.69 363.23C638.69 362.247 637.893 361.45 636.91 361.45C635.927 361.45 635.13 362.247 635.13 363.23C635.13 364.213 635.927 365.01 636.91 365.01Z" fill="white"/>
<path opacity="0.5" d="M636.91 380.31C637.893 380.31 638.69 379.513 638.69 378.53C638.69 377.547 637.893 376.75 636.91 376.75C635.927 376.75 635.13 377.547 635.13 378.53C635.13 379.513 635.927 380.31 636.91 380.31Z" fill="white"/>
<path opacity="0.5" d="M636.91 395.61C635.93 395.61 635.13 394.81 635.13 393.83C635.13 392.85 635.93 392.05 636.91 392.05C637.89 392.05 638.69 392.85 638.69 393.83C638.69 394.82 637.89 395.61 636.91 395.61Z" fill="white"/>
<path opacity="0.5" d="M621.61 288.48C620.63 288.48 619.83 287.68 619.83 286.7C619.83 285.72 620.63 284.92 621.61 284.92C622.59 284.92 623.39 285.72 623.39 286.7C623.38 287.68 622.59 288.48 621.61 288.48Z" fill="white"/>
<path opacity="0.5" d="M621.61 303.78C620.63 303.78 619.83 302.98 619.83 302C619.83 301.02 620.63 300.22 621.61 300.22C622.59 300.22 623.39 301.02 623.39 302C623.38 302.99 622.59 303.78 621.61 303.78Z" fill="white"/>
<path opacity="0.5" d="M621.61 319.09C620.63 319.09 619.83 318.29 619.83 317.31C619.83 316.33 620.63 315.53 621.61 315.53C622.59 315.53 623.39 316.33 623.39 317.31C623.38 318.29 622.59 319.09 621.61 319.09Z" fill="white"/>
<path opacity="0.5" d="M621.61 334.39C620.63 334.39 619.83 333.59 619.83 332.61C619.83 331.63 620.63 330.83 621.61 330.83C622.59 330.83 623.39 331.63 623.39 332.61C623.38 333.6 622.59 334.39 621.61 334.39Z" fill="white"/>
<path opacity="0.5" d="M621.61 349.7C620.63 349.7 619.83 348.9 619.83 347.92C619.83 346.94 620.63 346.14 621.61 346.14C622.59 346.14 623.39 346.94 623.39 347.92C623.38 348.9 622.59 349.7 621.61 349.7Z" fill="white"/>
<path opacity="0.5" d="M621.61 365C620.63 365 619.83 364.2 619.83 363.22C619.83 362.24 620.63 361.44 621.61 361.44C622.59 361.44 623.39 362.24 623.39 363.22C623.39 364.2 622.59 365 621.61 365Z" fill="white"/>
<path opacity="0.5" d="M621.61 380.31C620.63 380.31 619.83 379.51 619.83 378.53C619.83 377.55 620.63 376.75 621.61 376.75C622.59 376.75 623.39 377.55 623.39 378.53C623.39 379.51 622.59 380.31 621.61 380.31Z" fill="white"/>
<path opacity="0.5" d="M621.61 395.61C620.63 395.61 619.83 394.81 619.83 393.83C619.83 392.85 620.63 392.05 621.61 392.05C622.59 392.05 623.39 392.85 623.39 393.83C623.38 394.82 622.59 395.61 621.61 395.61Z" fill="white"/>
<path opacity="0.5" d="M606.3 288.48C607.283 288.48 608.08 287.683 608.08 286.7C608.08 285.717 607.283 284.92 606.3 284.92C605.317 284.92 604.52 285.717 604.52 286.7C604.52 287.683 605.317 288.48 606.3 288.48Z" fill="white"/>
<path opacity="0.5" d="M606.3 303.79C607.283 303.79 608.08 302.993 608.08 302.01C608.08 301.027 607.283 300.23 606.3 300.23C605.317 300.23 604.52 301.027 604.52 302.01C604.52 302.993 605.317 303.79 606.3 303.79Z" fill="white"/>
<path opacity="0.5" d="M606.3 319.09C607.283 319.09 608.08 318.293 608.08 317.31C608.08 316.327 607.283 315.53 606.3 315.53C605.317 315.53 604.52 316.327 604.52 317.31C604.52 318.293 605.317 319.09 606.3 319.09Z" fill="white"/>
<path opacity="0.5" d="M606.3 334.4C607.283 334.4 608.08 333.603 608.08 332.62C608.08 331.637 607.283 330.84 606.3 330.84C605.317 330.84 604.52 331.637 604.52 332.62C604.52 333.603 605.317 334.4 606.3 334.4Z" fill="white"/>
<path opacity="0.5" d="M606.3 349.7C607.283 349.7 608.08 348.903 608.08 347.92C608.08 346.937 607.283 346.14 606.3 346.14C605.317 346.14 604.52 346.937 604.52 347.92C604.52 348.903 605.317 349.7 606.3 349.7Z" fill="white"/>
<path opacity="0.5" d="M606.3 365.01C607.283 365.01 608.08 364.213 608.08 363.23C608.08 362.247 607.283 361.45 606.3 361.45C605.317 361.45 604.52 362.247 604.52 363.23C604.52 364.213 605.317 365.01 606.3 365.01Z" fill="white"/>
<path opacity="0.5" d="M606.3 380.31C607.283 380.31 608.08 379.513 608.08 378.53C608.08 377.547 607.283 376.75 606.3 376.75C605.317 376.75 604.52 377.547 604.52 378.53C604.52 379.513 605.317 380.31 606.3 380.31Z" fill="white"/>
<path opacity="0.5" d="M606.3 395.61C605.32 395.61 604.52 394.81 604.52 393.83C604.52 392.85 605.32 392.05 606.3 392.05C607.28 392.05 608.08 392.85 608.08 393.83C608.08 394.82 607.28 395.61 606.3 395.61Z" fill="white"/>
<path opacity="0.5" d="M590.99 288.48C591.973 288.48 592.77 287.683 592.77 286.7C592.77 285.717 591.973 284.92 590.99 284.92C590.007 284.92 589.21 285.717 589.21 286.7C589.21 287.683 590.007 288.48 590.99 288.48Z" fill="white"/>
<path opacity="0.5" d="M590.99 303.79C591.973 303.79 592.77 302.993 592.77 302.01C592.77 301.027 591.973 300.23 590.99 300.23C590.007 300.23 589.21 301.027 589.21 302.01C589.21 302.993 590.007 303.79 590.99 303.79Z" fill="white"/>
<path opacity="0.5" d="M590.99 319.09C591.973 319.09 592.77 318.293 592.77 317.31C592.77 316.327 591.973 315.53 590.99 315.53C590.007 315.53 589.21 316.327 589.21 317.31C589.21 318.293 590.007 319.09 590.99 319.09Z" fill="white"/>
<path opacity="0.5" d="M590.99 334.4C591.973 334.4 592.77 333.603 592.77 332.62C592.77 331.637 591.973 330.84 590.99 330.84C590.007 330.84 589.21 331.637 589.21 332.62C589.21 333.603 590.007 334.4 590.99 334.4Z" fill="white"/>
<path opacity="0.5" d="M590.99 349.7C591.973 349.7 592.77 348.903 592.77 347.92C592.77 346.937 591.973 346.14 590.99 346.14C590.007 346.14 589.21 346.937 589.21 347.92C589.21 348.903 590.007 349.7 590.99 349.7Z" fill="white"/>
<path opacity="0.5" d="M590.99 365.01C591.973 365.01 592.77 364.213 592.77 363.23C592.77 362.247 591.973 361.45 590.99 361.45C590.007 361.45 589.21 362.247 589.21 363.23C589.21 364.213 590.007 365.01 590.99 365.01Z" fill="white"/>
<path opacity="0.5" d="M590.99 380.31C591.973 380.31 592.77 379.513 592.77 378.53C592.77 377.547 591.973 376.75 590.99 376.75C590.007 376.75 589.21 377.547 589.21 378.53C589.21 379.513 590.007 380.31 590.99 380.31Z" fill="white"/>
<path opacity="0.5" d="M590.99 395.61C590.01 395.61 589.21 394.81 589.21 393.83C589.21 392.85 590.01 392.05 590.99 392.05C591.97 392.05 592.77 392.85 592.77 393.83C592.77 394.82 591.98 395.61 590.99 395.61Z" fill="white"/>
<path opacity="0.5" d="M575.69 288.48C576.673 288.48 577.47 287.683 577.47 286.7C577.47 285.717 576.673 284.92 575.69 284.92C574.707 284.92 573.91 285.717 573.91 286.7C573.91 287.683 574.707 288.48 575.69 288.48Z" fill="white"/>
<path opacity="0.5" d="M575.69 303.79C576.673 303.79 577.47 302.993 577.47 302.01C577.47 301.027 576.673 300.23 575.69 300.23C574.707 300.23 573.91 301.027 573.91 302.01C573.91 302.993 574.707 303.79 575.69 303.79Z" fill="white"/>
<path opacity="0.5" d="M575.69 319.09C576.673 319.09 577.47 318.293 577.47 317.31C577.47 316.327 576.673 315.53 575.69 315.53C574.707 315.53 573.91 316.327 573.91 317.31C573.91 318.293 574.707 319.09 575.69 319.09Z" fill="white"/>
<path opacity="0.5" d="M575.69 334.4C576.673 334.4 577.47 333.603 577.47 332.62C577.47 331.637 576.673 330.84 575.69 330.84C574.707 330.84 573.91 331.637 573.91 332.62C573.91 333.603 574.707 334.4 575.69 334.4Z" fill="white"/>
<path opacity="0.5" d="M575.69 349.7C576.673 349.7 577.47 348.903 577.47 347.92C577.47 346.937 576.673 346.14 575.69 346.14C574.707 346.14 573.91 346.937 573.91 347.92C573.91 348.903 574.707 349.7 575.69 349.7Z" fill="white"/>
<path opacity="0.5" d="M575.69 365.01C576.673 365.01 577.47 364.213 577.47 363.23C577.47 362.247 576.673 361.45 575.69 361.45C574.707 361.45 573.91 362.247 573.91 363.23C573.91 364.213 574.707 365.01 575.69 365.01Z" fill="white"/>
<path opacity="0.5" d="M575.69 380.31C576.673 380.31 577.47 379.513 577.47 378.53C577.47 377.547 576.673 376.75 575.69 376.75C574.707 376.75 573.91 377.547 573.91 378.53C573.91 379.513 574.707 380.31 575.69 380.31Z" fill="white"/>
<path opacity="0.5" d="M575.69 395.61C574.71 395.61 573.91 394.81 573.91 393.83C573.91 392.85 574.71 392.05 575.69 392.05C576.67 392.05 577.47 392.85 577.47 393.83C577.47 394.82 576.67 395.61 575.69 395.61Z" fill="white"/>
<path opacity="0.5" d="M560.38 288.48C561.363 288.48 562.16 287.683 562.16 286.7C562.16 285.717 561.363 284.92 560.38 284.92C559.397 284.92 558.6 285.717 558.6 286.7C558.6 287.683 559.397 288.48 560.38 288.48Z" fill="white"/>
<path opacity="0.5" d="M560.38 303.79C561.363 303.79 562.16 302.993 562.16 302.01C562.16 301.027 561.363 300.23 560.38 300.23C559.397 300.23 558.6 301.027 558.6 302.01C558.6 302.993 559.397 303.79 560.38 303.79Z" fill="white"/>
<path opacity="0.5" d="M560.38 319.09C561.363 319.09 562.16 318.293 562.16 317.31C562.16 316.327 561.363 315.53 560.38 315.53C559.397 315.53 558.6 316.327 558.6 317.31C558.6 318.293 559.397 319.09 560.38 319.09Z" fill="white"/>
<path opacity="0.5" d="M560.38 334.4C561.363 334.4 562.16 333.603 562.16 332.62C562.16 331.637 561.363 330.84 560.38 330.84C559.397 330.84 558.6 331.637 558.6 332.62C558.6 333.603 559.397 334.4 560.38 334.4Z" fill="white"/>
<path opacity="0.5" d="M560.38 349.7C561.363 349.7 562.16 348.903 562.16 347.92C562.16 346.937 561.363 346.14 560.38 346.14C559.397 346.14 558.6 346.937 558.6 347.92C558.6 348.903 559.397 349.7 560.38 349.7Z" fill="white"/>
<path opacity="0.5" d="M560.38 365.01C561.363 365.01 562.16 364.213 562.16 363.23C562.16 362.247 561.363 361.45 560.38 361.45C559.397 361.45 558.6 362.247 558.6 363.23C558.6 364.213 559.397 365.01 560.38 365.01Z" fill="white"/>
<path opacity="0.5" d="M560.38 380.31C561.363 380.31 562.16 379.513 562.16 378.53C562.16 377.547 561.363 376.75 560.38 376.75C559.397 376.75 558.6 377.547 558.6 378.53C558.6 379.513 559.397 380.31 560.38 380.31Z" fill="white"/>
<path opacity="0.5" d="M560.38 395.61C559.4 395.61 558.6 394.81 558.6 393.83C558.6 392.85 559.4 392.05 560.38 392.05C561.36 392.05 562.16 392.85 562.16 393.83C562.16 394.82 561.36 395.61 560.38 395.61Z" fill="white"/>
</g>
<g opacity="0.5">
<path opacity="0.5" d="M441.52 57.54C441.52 58.52 440.72 59.32 439.74 59.32C438.76 59.32 437.96 58.52 437.96 57.54C437.96 56.56 438.76 55.76 439.74 55.76C440.72 55.76 441.52 56.56 441.52 57.54Z" fill="white"/>
<path opacity="0.5" d="M456.83 57.54C456.83 58.52 456.03 59.32 455.05 59.32C454.07 59.32 453.27 58.52 453.27 57.54C453.27 56.56 454.07 55.76 455.05 55.76C456.03 55.77 456.83 56.56 456.83 57.54Z" fill="white"/>
<path opacity="0.5" d="M472.13 57.54C472.13 58.52 471.33 59.32 470.35 59.32C469.37 59.32 468.57 58.52 468.57 57.54C468.57 56.56 469.37 55.76 470.35 55.76C471.33 55.76 472.13 56.56 472.13 57.54Z" fill="white"/>
<path opacity="0.5" d="M441.52 72.85C441.52 73.83 440.72 74.63 439.74 74.63C438.76 74.63 437.96 73.83 437.96 72.85C437.96 71.87 438.76 71.07 439.74 71.07C440.72 71.07 441.52 71.87 441.52 72.85Z" fill="white"/>
<path opacity="0.5" d="M456.83 72.85C456.83 73.83 456.03 74.63 455.05 74.63C454.07 74.63 453.27 73.83 453.27 72.85C453.27 71.87 454.07 71.07 455.05 71.07C456.03 71.07 456.83 71.87 456.83 72.85Z" fill="white"/>
<path opacity="0.5" d="M472.13 72.85C472.13 73.83 471.33 74.63 470.35 74.63C469.37 74.63 468.57 73.83 468.57 72.85C468.57 71.87 469.37 71.07 470.35 71.07C471.33 71.07 472.13 71.87 472.13 72.85Z" fill="white"/>
<path opacity="0.5" d="M441.52 88.15C441.52 89.13 440.72 89.93 439.74 89.93C438.76 89.93 437.96 89.13 437.96 88.15C437.96 87.17 438.76 86.37 439.74 86.37C440.72 86.37 441.52 87.17 441.52 88.15Z" fill="white"/>
<path opacity="0.5" d="M456.83 88.15C456.83 89.13 456.03 89.93 455.05 89.93C454.07 89.93 453.27 89.13 453.27 88.15C453.27 87.17 454.07 86.37 455.05 86.37C456.03 86.38 456.83 87.17 456.83 88.15Z" fill="white"/>
<path opacity="0.5" d="M472.13 88.15C472.13 89.13 471.33 89.93 470.35 89.93C469.37 89.93 468.57 89.13 468.57 88.15C468.57 87.17 469.37 86.37 470.35 86.37C471.33 86.37 472.13 87.17 472.13 88.15Z" fill="white"/>
</g>
<g opacity="0.5">
<path opacity="0.5" d="M298.62 193.53C298.62 194.51 297.82 195.31 296.84 195.31C295.86 195.31 295.06 194.51 295.06 193.53C295.06 192.55 295.86 191.75 296.84 191.75C297.83 191.75 298.62 192.54 298.62 193.53Z" fill="white"/>
<path opacity="0.5" d="M312.15 195.31C313.133 195.31 313.93 194.513 313.93 193.53C313.93 192.547 313.133 191.75 312.15 191.75C311.167 191.75 310.37 192.547 310.37 193.53C310.37 194.513 311.167 195.31 312.15 195.31Z" fill="white"/>
<path opacity="0.5" d="M327.45 195.31C328.433 195.31 329.23 194.513 329.23 193.53C329.23 192.547 328.433 191.75 327.45 191.75C326.467 191.75 325.67 192.547 325.67 193.53C325.67 194.513 326.467 195.31 327.45 195.31Z" fill="white"/>
<path opacity="0.5" d="M298.62 208.83C298.62 209.81 297.82 210.61 296.84 210.61C295.86 210.61 295.06 209.81 295.06 208.83C295.06 207.85 295.86 207.05 296.84 207.05C297.83 207.05 298.62 207.85 298.62 208.83Z" fill="white"/>
<path opacity="0.5" d="M312.15 210.61C313.133 210.61 313.93 209.813 313.93 208.83C313.93 207.847 313.133 207.05 312.15 207.05C311.167 207.05 310.37 207.847 310.37 208.83C310.37 209.813 311.167 210.61 312.15 210.61Z" fill="white"/>
<path opacity="0.5" d="M327.45 210.61C328.433 210.61 329.23 209.813 329.23 208.83C329.23 207.847 328.433 207.05 327.45 207.05C326.467 207.05 325.67 207.847 325.67 208.83C325.67 209.813 326.467 210.61 327.45 210.61Z" fill="white"/>
<path opacity="0.5" d="M298.62 224.14C298.62 225.12 297.82 225.92 296.84 225.92C295.86 225.92 295.06 225.12 295.06 224.14C295.06 223.16 295.86 222.36 296.84 222.36C297.83 222.36 298.62 223.16 298.62 224.14Z" fill="white"/>
<path opacity="0.5" d="M313.93 224.14C313.93 225.12 313.13 225.92 312.15 225.92C311.17 225.92 310.37 225.12 310.37 224.14C310.37 223.16 311.17 222.36 312.15 222.36C313.13 222.36 313.93 223.16 313.93 224.14Z" fill="white"/>
<path opacity="0.5" d="M329.23 224.14C329.23 225.12 328.43 225.92 327.45 225.92C326.47 225.92 325.67 225.12 325.67 224.14C325.67 223.16 326.47 222.36 327.45 222.36C328.44 222.36 329.23 223.16 329.23 224.14Z" fill="white"/>
</g>
<g opacity="0.5">
<path opacity="0.5" d="M585.12 -1.44L520.64 63.04" stroke="white" stroke-width="2.1221" stroke-miterlimit="10"/>
<path opacity="0.5" d="M580.93 -5.63L516.45 58.85" stroke="white" stroke-width="2.1221" stroke-miterlimit="10"/>
<path opacity="0.5" d="M576.74 -9.82001L512.26 54.66" stroke="white" stroke-width="2.1221" stroke-miterlimit="10"/>
<path opacity="0.5" d="M572.55 -14.01L508.07 50.47" stroke="white" stroke-width="2.1221" stroke-miterlimit="10"/>
<path opacity="0.5" d="M568.36 -18.2L503.88 46.28" stroke="white" stroke-width="2.1221" stroke-miterlimit="10"/>
<path opacity="0.5" d="M564.17 -22.39L499.69 42.09" stroke="white" stroke-width="2.1221" stroke-miterlimit="10"/>
<path opacity="0.5" d="M559.98 -26.58L495.5 37.9" stroke="white" stroke-width="2.1221" stroke-miterlimit="10"/>
<path opacity="0.5" d="M555.79 -30.77L491.31 33.71" stroke="white" stroke-width="2.1221" stroke-miterlimit="10"/>
<path opacity="0.5" d="M551.6 -34.96L487.12 29.52" stroke="white" stroke-width="2.1221" stroke-miterlimit="10"/>
<path opacity="0.5" d="M547.41 -39.15L482.93 25.33" stroke="white" stroke-width="2.1221" stroke-miterlimit="10"/>
<path opacity="0.5" d="M543.22 -43.34L478.74 21.14" stroke="white" stroke-width="2.1221" stroke-miterlimit="10"/>
<path opacity="0.5" d="M539.03 -47.52L474.56 16.95" stroke="white" stroke-width="2.1221" stroke-miterlimit="10"/>
<path opacity="0.5" d="M534.85 -51.71L470.37 12.77" stroke="white" stroke-width="2.1221" stroke-miterlimit="10"/>
<path opacity="0.5" d="M530.66 -55.9L466.18 8.58001" stroke="white" stroke-width="2.1221" stroke-miterlimit="10"/>
<path opacity="0.5" d="M526.47 -60.09L461.99 4.39" stroke="white" stroke-width="2.1221" stroke-miterlimit="10"/>
<path opacity="0.5" d="M522.28 -64.28L457.8 0.199997" stroke="white" stroke-width="2.1221" stroke-miterlimit="10"/>
</g>
<g opacity="0.5">
<path opacity="0.5" d="M433.51 495.39L369.03 559.87" stroke="white" stroke-width="2.1221" stroke-miterlimit="10"/>
<path opacity="0.5" d="M429.32 491.2L364.84 555.68" stroke="white" stroke-width="2.1221" stroke-miterlimit="10"/>
<path opacity="0.5" d="M425.13 487.01L360.65 551.49" stroke="white" stroke-width="2.1221" stroke-miterlimit="10"/>
<path opacity="0.5" d="M420.94 482.82L356.46 547.3" stroke="white" stroke-width="2.1221" stroke-miterlimit="10"/>
<path opacity="0.5" d="M416.75 478.63L352.27 543.11" stroke="white" stroke-width="2.1221" stroke-miterlimit="10"/>
<path opacity="0.5" d="M412.56 474.44L348.08 538.92" stroke="white" stroke-width="2.1221" stroke-miterlimit="10"/>
<path opacity="0.5" d="M408.37 470.25L343.89 534.73" stroke="white" stroke-width="2.1221" stroke-miterlimit="10"/>
<path opacity="0.5" d="M404.18 466.06L339.7 530.54" stroke="white" stroke-width="2.1221" stroke-miterlimit="10"/>
<path opacity="0.5" d="M399.99 461.87L335.51 526.35" stroke="white" stroke-width="2.1221" stroke-miterlimit="10"/>
<path opacity="0.5" d="M395.8 457.68L331.32 522.16" stroke="white" stroke-width="2.1221" stroke-miterlimit="10"/>
<path opacity="0.5" d="M391.61 453.49L327.13 517.97" stroke="white" stroke-width="2.1221" stroke-miterlimit="10"/>
<path opacity="0.5" d="M387.42 449.3L322.95 513.78" stroke="white" stroke-width="2.1221" stroke-miterlimit="10"/>
<path opacity="0.5" d="M383.24 445.12L318.76 509.59" stroke="white" stroke-width="2.1221" stroke-miterlimit="10"/>
<path opacity="0.5" d="M379.05 440.93L314.57 505.4" stroke="white" stroke-width="2.1221" stroke-miterlimit="10"/>
<path opacity="0.5" d="M374.86 436.74L310.38 501.22" stroke="white" stroke-width="2.1221" stroke-miterlimit="10"/>
</g>
<g opacity="0.8">
<path opacity="0.8" d="M392.971 78.8848C448.019 23.837 448.019 -65.4131 392.971 -120.461C337.924 -175.509 248.673 -175.509 193.626 -120.461C138.578 -65.4131 138.578 23.837 193.626 78.8848C248.673 133.933 337.924 133.933 392.971 78.8848Z" stroke="white" stroke-width="0.5" stroke-miterlimit="10"/>
<path opacity="0.8" d="M387.951 73.8644C440.226 21.5893 440.226 -63.1653 387.951 -115.44C335.676 -167.715 250.921 -167.716 198.646 -115.44C146.371 -63.1654 146.371 21.5893 198.646 73.8644C250.921 126.139 335.676 126.139 387.951 73.8644Z" stroke="white" stroke-width="0.6562" stroke-miterlimit="10"/>
<path opacity="0.8" d="M293.3 105.96C363.302 105.96 420.05 49.2121 420.05 -20.79C420.05 -90.7921 363.302 -147.54 293.3 -147.54C223.298 -147.54 166.55 -90.7921 166.55 -20.79C166.55 49.2121 223.298 105.96 293.3 105.96Z" stroke="white" stroke-width="0.8125" stroke-miterlimit="10"/>
<path opacity="0.8" d="M293.3 98.86C359.381 98.86 412.95 45.2909 412.95 -20.79C412.95 -86.8709 359.381 -140.44 293.3 -140.44C227.219 -140.44 173.65 -86.8709 173.65 -20.79C173.65 45.2909 227.219 98.86 293.3 98.86Z" stroke="white" stroke-width="0.9688" stroke-miterlimit="10"/>
<path opacity="0.8" d="M372.883 58.7961C416.836 14.843 416.836 -56.419 372.883 -100.372C328.93 -144.325 257.668 -144.325 213.714 -100.372C169.761 -56.419 169.761 14.843 213.714 58.7961C257.668 102.749 328.93 102.749 372.883 58.7961Z" stroke="white" stroke-width="1.125" stroke-miterlimit="10"/>
<path opacity="0.8" d="M367.862 53.7757C409.043 12.5953 409.043 -54.1713 367.862 -95.3517C326.682 -136.532 259.915 -136.532 218.735 -95.3517C177.554 -54.1713 177.554 12.5953 218.735 53.7757C259.915 94.9561 326.682 94.9561 367.862 53.7757Z" stroke="white" stroke-width="1.2812" stroke-miterlimit="10"/>
<path opacity="0.8" d="M362.842 48.7553C401.249 10.3476 401.249 -51.9236 362.842 -90.3313C324.434 -128.739 262.163 -128.739 223.755 -90.3313C185.347 -51.9236 185.348 10.3476 223.755 48.7552C262.163 87.1629 324.434 87.163 362.842 48.7553Z" stroke="white" stroke-width="1.4375" stroke-miterlimit="10"/>
<path opacity="0.8" d="M357.821 43.7348C393.456 8.09985 393.456 -49.6759 357.821 -85.3109C322.186 -120.946 264.411 -120.946 228.776 -85.3109C193.141 -49.6759 193.141 8.09985 228.776 43.7349C264.411 79.3699 322.186 79.3698 357.821 43.7348Z" stroke="white" stroke-width="1.5938" stroke-miterlimit="10"/>
<path opacity="0.8" d="M376.391 -7.36361C383.795 -53.2435 352.603 -96.4382 306.723 -103.842C260.844 -111.245 217.649 -80.0537 210.245 -34.1738C202.842 11.7061 234.033 54.9007 279.913 62.3042C325.793 69.7076 368.988 38.5163 376.391 -7.36361Z" stroke="white" stroke-width="1.75" stroke-miterlimit="10"/>
<path opacity="0.8" d="M293.3 56.26C335.854 56.26 370.35 21.7635 370.35 -20.79C370.35 -63.3435 335.854 -97.84 293.3 -97.84C250.746 -97.84 216.25 -63.3435 216.25 -20.79C216.25 21.7635 250.746 56.26 293.3 56.26Z" stroke="white" stroke-width="1.9062" stroke-miterlimit="10"/>
<path opacity="0.8" d="M342.76 28.6736C370.077 1.3567 370.077 -42.9328 342.76 -70.2497C315.443 -97.5666 271.154 -97.5666 243.837 -70.2497C216.52 -42.9328 216.52 1.3567 243.837 28.6736C271.154 55.9905 315.443 55.9905 342.76 28.6736Z" stroke="white" stroke-width="2.0625" stroke-miterlimit="10"/>
<path opacity="0.8" d="M337.733 23.6461C362.273 -0.89417 362.273 -40.6819 337.733 -65.2222C313.192 -89.7625 273.405 -89.7625 248.864 -65.2222C224.324 -40.6819 224.324 -0.89417 248.864 23.6461C273.405 48.1865 313.192 48.1865 337.733 23.6461Z" stroke="white" stroke-width="2.2188" stroke-miterlimit="10"/>
<path opacity="0.8" d="M332.712 18.6257C354.48 -3.1419 354.48 -38.4342 332.712 -60.2018C310.945 -81.9694 275.652 -81.9694 253.885 -60.2018C232.117 -38.4342 232.117 -3.1419 253.885 18.6257C275.652 40.3933 310.945 40.3933 332.712 18.6257Z" stroke="white" stroke-width="2.375" stroke-miterlimit="10"/>
<path opacity="0.8" d="M327.692 13.6053C346.687 -5.3896 346.687 -36.1865 327.692 -55.1814C308.697 -74.1763 277.9 -74.1763 258.905 -55.1814C239.91 -36.1865 239.91 -5.38961 258.905 13.6053C277.9 32.6002 308.697 32.6002 327.692 13.6053Z" stroke="white" stroke-width="2.5312" stroke-miterlimit="10"/>
<path opacity="0.8" d="M334.54 -15.9265C337.229 -38.7101 320.939 -59.3596 298.155 -62.0484C275.372 -64.7372 254.722 -48.4471 252.034 -25.6635C249.345 -2.87988 265.635 17.7696 288.418 20.4583C311.202 23.1471 331.851 6.85709 334.54 -15.9265Z" stroke="white" stroke-width="2.6875" stroke-miterlimit="10"/>
<path opacity="0.8" d="M293.3 13.65C312.321 13.65 327.74 -1.7693 327.74 -20.79C327.74 -39.8107 312.321 -55.23 293.3 -55.23C274.279 -55.23 258.86 -39.8107 258.86 -20.79C258.86 -1.7693 274.279 13.65 293.3 13.65Z" stroke="white" stroke-width="2.8438" stroke-miterlimit="10"/>
<path opacity="0.8" d="M320.574 -18.5919C321.773 -33.643 310.543 -46.8163 295.492 -48.0152C280.441 -49.2141 267.268 -37.9846 266.069 -22.9334C264.87 -7.8823 276.099 5.29096 291.15 6.48986C306.202 7.68876 319.375 -3.54071 320.574 -18.5919Z" stroke="white" stroke-width="3" stroke-miterlimit="10"/>
</g>
<g opacity="0.79">
<path opacity="0.79" d="M515.162 298.757C551.18 262.739 551.18 204.343 515.162 168.325C479.144 132.308 420.748 132.308 384.73 168.325C348.713 204.343 348.713 262.739 384.73 298.757C420.748 334.775 479.144 334.775 515.162 298.757Z" stroke="white" stroke-width="0.5" stroke-miterlimit="10"/>
<path opacity="0.79" d="M510.566 294.161C544.045 260.682 544.045 206.401 510.566 172.922C477.086 139.442 422.806 139.442 389.326 172.922C355.847 206.401 355.847 260.682 389.326 294.161C422.806 327.64 477.086 327.64 510.566 294.161Z" stroke="white" stroke-width="0.7273" stroke-miterlimit="10"/>
<path opacity="0.79" d="M449.95 312.77C493.708 312.77 529.18 277.298 529.18 233.54C529.18 189.782 493.708 154.31 449.95 154.31C406.192 154.31 370.72 189.782 370.72 233.54C370.72 277.298 406.192 312.77 449.95 312.77Z" stroke="white" stroke-width="0.9545" stroke-miterlimit="10"/>
<path opacity="0.79" d="M449.95 306.28C490.123 306.28 522.69 273.713 522.69 233.54C522.69 193.367 490.123 160.8 449.95 160.8C409.777 160.8 377.21 193.367 377.21 233.54C377.21 273.713 409.777 306.28 449.95 306.28Z" stroke="white" stroke-width="1.1818" stroke-miterlimit="10"/>
<path opacity="0.79" d="M449.95 299.78C486.533 299.78 516.19 270.123 516.19 233.54C516.19 196.957 486.533 167.3 449.95 167.3C413.367 167.3 383.71 196.957 383.71 233.54C383.71 270.123 413.367 299.78 449.95 299.78Z" stroke="white" stroke-width="1.4091" stroke-miterlimit="10"/>
<path opacity="0.79" d="M449.95 293.28C482.943 293.28 509.69 266.534 509.69 233.54C509.69 200.547 482.943 173.8 449.95 173.8C416.956 173.8 390.21 200.547 390.21 233.54C390.21 266.534 416.956 293.28 449.95 293.28Z" stroke="white" stroke-width="1.6364" stroke-miterlimit="10"/>
<path opacity="0.79" d="M449.95 286.78C479.354 286.78 503.19 262.944 503.19 233.54C503.19 204.136 479.354 180.3 449.95 180.3C420.546 180.3 396.71 204.136 396.71 233.54C396.71 262.944 420.546 286.78 449.95 286.78Z" stroke="white" stroke-width="1.8636" stroke-miterlimit="10"/>
<path opacity="0.79" d="M449.95 280.28C475.764 280.28 496.69 259.354 496.69 233.54C496.69 207.726 475.764 186.8 449.95 186.8C424.136 186.8 403.21 207.726 403.21 233.54C403.21 259.354 424.136 280.28 449.95 280.28Z" stroke="white" stroke-width="2.0909" stroke-miterlimit="10"/>
<path opacity="0.79" d="M449.95 273.78C472.174 273.78 490.19 255.764 490.19 233.54C490.19 211.316 472.174 193.3 449.95 193.3C427.726 193.3 409.71 211.316 409.71 233.54C409.71 255.764 427.726 273.78 449.95 273.78Z" stroke="white" stroke-width="2.3182" stroke-miterlimit="10"/>
<path opacity="0.79" d="M449.95 267.28C468.584 267.28 483.69 252.174 483.69 233.54C483.69 214.906 468.584 199.8 449.95 199.8C431.316 199.8 416.21 214.906 416.21 233.54C416.21 252.174 431.316 267.28 449.95 267.28Z" stroke="white" stroke-width="2.5454" stroke-miterlimit="10"/>
<path opacity="0.79" d="M449.95 260.78C464.994 260.78 477.19 248.584 477.19 233.54C477.19 218.496 464.994 206.3 449.95 206.3C434.906 206.3 422.71 218.496 422.71 233.54C422.71 248.584 434.906 260.78 449.95 260.78Z" stroke="white" stroke-width="2.7727" stroke-miterlimit="10"/>
<path opacity="0.79" d="M449.95 254.28C461.404 254.28 470.69 244.994 470.69 233.54C470.69 222.086 461.404 212.8 449.95 212.8C438.496 212.8 429.21 222.086 429.21 233.54C429.21 244.994 438.496 254.28 449.95 254.28Z" stroke="white" stroke-width="3" stroke-miterlimit="10"/>
</g>
<g opacity="0.89">
<g opacity="0.89">
<path opacity="0.89" d="M180.79 273.61C225.47 273.61 261.69 237.39 261.69 192.71C261.69 148.03 225.47 111.81 180.79 111.81C136.11 111.81 99.8899 148.03 99.8899 192.71C99.8899 237.39 136.11 273.61 180.79 273.61Z" stroke="white" stroke-width="0.8127" stroke-linecap="round" stroke-linejoin="round"/>
</g>
<g opacity="0.89">
<path opacity="0.89" d="M180.79 267.71C222.211 267.71 255.79 234.131 255.79 192.71C255.79 151.289 222.211 117.71 180.79 117.71C139.368 117.71 105.79 151.289 105.79 192.71C105.79 234.131 139.368 267.71 180.79 267.71Z" stroke="white" stroke-width="0.9493" stroke-linecap="round" stroke-linejoin="round"/>
</g>
<g opacity="0.89">
<path opacity="0.89" d="M180.79 261.81C218.953 261.81 249.89 230.873 249.89 192.71C249.89 154.547 218.953 123.61 180.79 123.61C142.627 123.61 111.69 154.547 111.69 192.71C111.69 230.873 142.627 261.81 180.79 261.81Z" stroke="white" stroke-width="1.0859" stroke-linecap="round" stroke-linejoin="round"/>
</g>
<g opacity="0.89">
<path opacity="0.89" d="M180.79 255.91C215.694 255.91 243.99 227.614 243.99 192.71C243.99 157.806 215.694 129.51 180.79 129.51C145.885 129.51 117.59 157.806 117.59 192.71C117.59 227.614 145.885 255.91 180.79 255.91Z" stroke="white" stroke-width="1.2225" stroke-linecap="round" stroke-linejoin="round"/>
</g>
<g opacity="0.89">
<path opacity="0.89" d="M180.79 250.01C212.436 250.01 238.09 224.356 238.09 192.71C238.09 161.064 212.436 135.41 180.79 135.41C149.144 135.41 123.49 161.064 123.49 192.71C123.49 224.356 149.144 250.01 180.79 250.01Z" stroke="white" stroke-width="1.3591" stroke-linecap="round" stroke-linejoin="round"/>
</g>
<g opacity="0.89">
<path opacity="0.89" d="M180.79 244.11C209.177 244.11 232.19 221.097 232.19 192.71C232.19 164.323 209.177 141.31 180.79 141.31C152.402 141.31 129.39 164.323 129.39 192.71C129.39 221.097 152.402 244.11 180.79 244.11Z" stroke="white" stroke-width="1.4956" stroke-linecap="round" stroke-linejoin="round"/>
</g>
<g opacity="0.89">
<path opacity="0.89" d="M180.79 238.21C205.919 238.21 226.29 217.839 226.29 192.71C226.29 167.581 205.919 147.21 180.79 147.21C155.661 147.21 135.29 167.581 135.29 192.71C135.29 217.839 155.661 238.21 180.79 238.21Z" stroke="white" stroke-width="1.6322" stroke-linecap="round" stroke-linejoin="round"/>
</g>
<g opacity="0.89">
<path opacity="0.89" d="M180.79 232.31C202.66 232.31 220.39 214.58 220.39 192.71C220.39 170.84 202.66 153.11 180.79 153.11C158.919 153.11 141.19 170.84 141.19 192.71C141.19 214.58 158.919 232.31 180.79 232.31Z" stroke="white" stroke-width="1.7688" stroke-linecap="round" stroke-linejoin="round"/>
</g>
<g opacity="0.89">
<path opacity="0.89" d="M180.79 226.42C199.407 226.42 214.5 211.328 214.5 192.71C214.5 174.092 199.407 159 180.79 159C162.172 159 147.08 174.092 147.08 192.71C147.08 211.328 162.172 226.42 180.79 226.42Z" stroke="white" stroke-width="1.9054" stroke-linecap="round" stroke-linejoin="round"/>
</g>
<g opacity="0.89">
<path opacity="0.89" d="M180.79 220.52C196.149 220.52 208.6 208.069 208.6 192.71C208.6 177.351 196.149 164.9 180.79 164.9C165.431 164.9 152.98 177.351 152.98 192.71C152.98 208.069 165.431 220.52 180.79 220.52Z" stroke="white" stroke-width="2.042" stroke-linecap="round" stroke-linejoin="round"/>
</g>
<g opacity="0.89">
<path opacity="0.89" d="M180.79 214.62C192.89 214.62 202.7 204.811 202.7 192.71C202.7 180.609 192.89 170.8 180.79 170.8C168.689 170.8 158.88 180.609 158.88 192.71C158.88 204.811 168.689 214.62 180.79 214.62Z" stroke="white" stroke-width="2.1786" stroke-linecap="round" stroke-linejoin="round"/>
</g>
<g opacity="0.89">
<path opacity="0.89" d="M180.79 208.72C189.632 208.72 196.8 201.552 196.8 192.71C196.8 183.868 189.632 176.7 180.79 176.7C171.948 176.7 164.78 183.868 164.78 192.71C164.78 201.552 171.948 208.72 180.79 208.72Z" stroke="white" stroke-width="2.3152" stroke-linecap="round" stroke-linejoin="round"/>
</g>
</g>
<g opacity="0.81">
<g opacity="0.81">
<path opacity="0.81" d="M856.325 104.569C914.868 46.0257 914.868 -48.8912 856.325 -107.434C797.782 -165.977 702.866 -165.977 644.323 -107.434C585.78 -48.8912 585.78 46.0257 644.323 104.569C702.866 163.112 797.782 163.112 856.325 104.569Z" stroke="white" stroke-width="1.0531" stroke-linecap="round" stroke-linejoin="round"/>
</g>
<g opacity="0.81">
<path opacity="0.81" d="M750.33 142.74C829.958 142.74 894.51 78.1884 894.51 -1.44C894.51 -81.0684 829.958 -145.62 750.33 -145.62C670.701 -145.62 606.15 -81.0684 606.15 -1.44C606.15 78.1884 670.701 142.74 750.33 142.74Z" stroke="white" stroke-width="1.1458" stroke-linecap="round" stroke-linejoin="round"/>
</g>
<g opacity="0.81">
<path opacity="0.81" d="M848.229 96.4723C902.301 42.4008 902.301 -45.2664 848.229 -99.3379C794.158 -153.409 706.49 -153.409 652.419 -99.3378C598.348 -45.2664 598.348 42.4008 652.419 96.4723C706.49 150.544 794.158 150.544 848.229 96.4723Z" stroke="white" stroke-width="1.2385" stroke-linecap="round" stroke-linejoin="round"/>
</g>
<g opacity="0.81">
<path opacity="0.81" d="M750.33 131.29C823.635 131.29 883.06 71.8648 883.06 -1.44C883.06 -74.7448 823.635 -134.17 750.33 -134.17C677.025 -134.17 617.6 -74.7448 617.6 -1.44C617.6 71.8648 677.025 131.29 750.33 131.29Z" stroke="white" stroke-width="1.3312" stroke-linecap="round" stroke-linejoin="round"/>
</g>
<g opacity="0.81">
<path opacity="0.81" d="M750.33 125.57C820.476 125.57 877.34 68.7057 877.34 -1.44C877.34 -71.5857 820.476 -128.45 750.33 -128.45C680.184 -128.45 623.32 -71.5857 623.32 -1.44C623.32 68.7057 680.184 125.57 750.33 125.57Z" stroke="white" stroke-width="1.4239" stroke-linecap="round" stroke-linejoin="round"/>
</g>
<g opacity="0.81">
<path opacity="0.81" d="M750.33 119.84C817.311 119.84 871.61 65.5411 871.61 -1.44C871.61 -68.4211 817.311 -122.72 750.33 -122.72C683.349 -122.72 629.05 -68.4211 629.05 -1.44C629.05 65.5411 683.349 119.84 750.33 119.84Z" stroke="white" stroke-width="1.5166" stroke-linecap="round" stroke-linejoin="round"/>
</g>
<g opacity="0.81">
<path opacity="0.81" d="M750.33 114.11C814.146 114.11 865.88 62.3765 865.88 -1.43999C865.88 -65.2565 814.146 -116.99 750.33 -116.99C686.513 -116.99 634.78 -65.2565 634.78 -1.43999C634.78 62.3765 686.513 114.11 750.33 114.11Z" stroke="white" stroke-width="1.6093" stroke-linecap="round" stroke-linejoin="round"/>
</g>
<g opacity="0.81">
<path opacity="0.81" d="M750.33 108.39C810.987 108.39 860.16 59.2174 860.16 -1.43999C860.16 -62.0974 810.987 -111.27 750.33 -111.27C689.673 -111.27 640.5 -62.0974 640.5 -1.43999C640.5 59.2174 689.673 108.39 750.33 108.39Z" stroke="white" stroke-width="1.702" stroke-linecap="round" stroke-linejoin="round"/>
</g>
<g opacity="0.81">
<path opacity="0.81" d="M750.33 102.66C807.823 102.66 854.43 56.0528 854.43 -1.43999C854.43 -58.9328 807.823 -105.54 750.33 -105.54C692.837 -105.54 646.23 -58.9328 646.23 -1.43999C646.23 56.0528 692.837 102.66 750.33 102.66Z" stroke="white" stroke-width="1.7948" stroke-linecap="round" stroke-linejoin="round"/>
</g>
<g opacity="0.81">
<path opacity="0.81" d="M750.33 96.94C804.664 96.94 848.71 52.8938 848.71 -1.43999C848.71 -55.7738 804.664 -99.82 750.33 -99.82C695.996 -99.82 651.95 -55.7738 651.95 -1.43999C651.95 52.8938 695.996 96.94 750.33 96.94Z" stroke="white" stroke-width="1.8875" stroke-linecap="round" stroke-linejoin="round"/>
</g>
<g opacity="0.81">
<path opacity="0.81" d="M750.33 91.21C801.499 91.21 842.98 49.7292 842.98 -1.44C842.98 -52.6092 801.499 -94.09 750.33 -94.09C699.161 -94.09 657.68 -52.6092 657.68 -1.44C657.68 49.7292 699.161 91.21 750.33 91.21Z" stroke="white" stroke-width="1.9802" stroke-linecap="round" stroke-linejoin="round"/>
</g>
<g opacity="0.81">
<path opacity="0.81" d="M750.33 85.48C798.335 85.48 837.25 46.5646 837.25 -1.44C837.25 -49.4446 798.335 -88.36 750.33 -88.36C702.325 -88.36 663.41 -49.4446 663.41 -1.44C663.41 46.5646 702.325 85.48 750.33 85.48Z" stroke="white" stroke-width="2.0729" stroke-linecap="round" stroke-linejoin="round"/>
</g>
<g opacity="0.81">
<path opacity="0.81" d="M753.247 79.7614C798.066 78.1649 833.104 40.538 831.508 -4.28061C829.911 -49.0992 792.284 -84.1377 747.466 -82.5412C702.647 -80.9447 667.609 -43.3178 669.205 1.50083C670.802 46.3194 708.429 81.3579 753.247 79.7614Z" stroke="white" stroke-width="2.1656" stroke-linecap="round" stroke-linejoin="round"/>
</g>
<g opacity="0.81">
<path opacity="0.81" d="M750.33 74.03C792.011 74.03 825.8 40.2409 825.8 -1.44C825.8 -43.1209 792.011 -76.91 750.33 -76.91C708.649 -76.91 674.86 -43.1209 674.86 -1.44C674.86 40.2409 708.649 74.03 750.33 74.03Z" stroke="white" stroke-width="2.2583" stroke-linecap="round" stroke-linejoin="round"/>
</g>
<g opacity="0.81">
<path opacity="0.81" d="M752.84 68.3183C791.338 66.9469 821.436 34.6258 820.065 -3.87298C818.693 -42.3717 786.372 -72.4694 747.873 -71.098C709.375 -69.7267 679.277 -37.4055 680.648 1.09322C682.02 39.592 714.341 69.6897 752.84 68.3183Z" stroke="white" stroke-width="2.351" stroke-linecap="round" stroke-linejoin="round"/>
</g>
<g opacity="0.81">
<path opacity="0.81" d="M750.33 62.58C785.687 62.58 814.35 33.9173 814.35 -1.43999C814.35 -36.7973 785.687 -65.46 750.33 -65.46C714.973 -65.46 686.31 -36.7973 686.31 -1.43999C686.31 33.9173 714.973 62.58 750.33 62.58Z" stroke="white" stroke-width="2.4437" stroke-linecap="round" stroke-linejoin="round"/>
</g>
<g opacity="0.81">
<path opacity="0.81" d="M752.432 56.8652C784.605 55.7191 809.758 28.7084 808.612 -3.465C807.466 -35.6384 780.455 -60.791 748.281 -59.6449C716.108 -58.4988 690.955 -31.4881 692.101 0.68525C693.248 32.8586 720.258 58.0112 752.432 56.8652Z" stroke="white" stroke-width="2.5364" stroke-linecap="round" stroke-linejoin="round"/>
</g>
<g opacity="0.81">
<path opacity="0.81" d="M750.33 51.13C779.363 51.13 802.9 27.5936 802.9 -1.43999C802.9 -30.4736 779.363 -54.01 750.33 -54.01C721.296 -54.01 697.76 -30.4736 697.76 -1.43999C697.76 27.5936 721.296 51.13 750.33 51.13Z" stroke="white" stroke-width="2.6292" stroke-linecap="round" stroke-linejoin="round"/>
</g>
<g opacity="0.81">
<path opacity="0.81" d="M752.024 45.422C777.878 44.5011 798.089 22.7961 797.168 -3.05739C796.248 -28.9109 774.543 -49.1227 748.689 -48.2018C722.836 -47.2808 702.624 -25.5759 703.545 0.277622C704.466 26.1311 726.171 46.3429 752.024 45.422Z" stroke="white" stroke-width="2.7219" stroke-linecap="round" stroke-linejoin="round"/>
</g>
<g opacity="0.81">
<path opacity="0.81" d="M750.33 39.68C773.04 39.68 791.45 21.2699 791.45 -1.44C791.45 -24.15 773.04 -42.56 750.33 -42.56C727.62 -42.56 709.21 -24.15 709.21 -1.44C709.21 21.2699 727.62 39.68 750.33 39.68Z" stroke="white" stroke-width="2.8146" stroke-linecap="round" stroke-linejoin="round"/>
</g>
<g opacity="0.81">
<path opacity="0.81" d="M751.616 33.9789C771.15 33.2831 786.421 16.8838 785.725 -2.64978C785.029 -22.1834 768.63 -37.4545 749.097 -36.7587C729.563 -36.0628 714.292 -19.6636 714.988 -0.130013C715.683 19.4036 732.083 34.6747 751.616 33.9789Z" stroke="white" stroke-width="2.9073" stroke-linecap="round" stroke-linejoin="round"/>
</g>
<g opacity="0.81">
<path opacity="0.81" d="M750.33 28.22C766.711 28.22 779.99 14.9408 779.99 -1.44C779.99 -17.8208 766.711 -31.1 750.33 -31.1C733.949 -31.1 720.67 -17.8208 720.67 -1.44C720.67 14.9408 733.949 28.22 750.33 28.22Z" stroke="white" stroke-width="3" stroke-linecap="round" stroke-linejoin="round"/>
</g>
</g>
<g opacity="0.77">
<g opacity="0.77">
<path opacity="0.77" d="M274.14 242.77L134.64 382.27" stroke="white" stroke-width="2" stroke-miterlimit="10"/>
<path opacity="0.77" d="M282.16 242.77L142.66 382.27" stroke="white" stroke-width="2" stroke-miterlimit="10"/>
<path opacity="0.77" d="M290.17 242.77L150.67 382.27" stroke="white" stroke-width="2" stroke-miterlimit="10"/>
<path opacity="0.77" d="M298.19 242.77L158.69 382.27" stroke="white" stroke-width="2" stroke-miterlimit="10"/>
<path opacity="0.77" d="M306.21 242.77L166.71 382.27" stroke="white" stroke-width="2" stroke-miterlimit="10"/>
<path opacity="0.77" d="M314.23 242.77L174.73 382.27" stroke="white" stroke-width="2" stroke-miterlimit="10"/>
<path opacity="0.77" d="M322.24 242.77L182.74 382.27" stroke="white" stroke-width="2" stroke-miterlimit="10"/>
<path opacity="0.77" d="M330.26 242.77L190.76 382.27" stroke="white" stroke-width="2" stroke-miterlimit="10"/>
<path opacity="0.77" d="M338.28 242.77L198.78 382.27" stroke="white" stroke-width="2" stroke-miterlimit="10"/>
<path opacity="0.77" d="M346.3 242.77L206.8 382.27" stroke="white" stroke-width="2" stroke-miterlimit="10"/>
<path opacity="0.77" d="M354.31 242.77L214.81 382.27" stroke="white" stroke-width="2" stroke-miterlimit="10"/>
<path opacity="0.77" d="M362.33 242.77L222.83 382.27" stroke="white" stroke-width="2" stroke-miterlimit="10"/>
<path opacity="0.77" d="M370.35 242.77L230.85 382.27" stroke="white" stroke-width="2" stroke-miterlimit="10"/>
<path opacity="0.77" d="M378.36 242.77L238.86 382.27" stroke="white" stroke-width="2" stroke-miterlimit="10"/>
<path opacity="0.77" d="M386.38 242.77L246.88 382.27" stroke="white" stroke-width="2" stroke-miterlimit="10"/>
<path opacity="0.77" d="M394.4 242.77L254.9 382.27" stroke="white" stroke-width="2" stroke-miterlimit="10"/>
<path opacity="0.77" d="M402.42 242.77L262.92 382.27" stroke="white" stroke-width="2" stroke-miterlimit="10"/>
<path opacity="0.77" d="M410.43 242.77L270.93 382.27" stroke="white" stroke-width="2" stroke-miterlimit="10"/>
<path opacity="0.77" d="M418.45 242.77L278.95 382.27" stroke="white" stroke-width="2" stroke-miterlimit="10"/>
<path opacity="0.77" d="M426.47 242.77L286.97 382.27" stroke="white" stroke-width="2" stroke-miterlimit="10"/>
<path opacity="0.77" d="M434.48 242.77L294.98 382.27" stroke="white" stroke-width="2" stroke-miterlimit="10"/>
<path opacity="0.77" d="M442.5 242.77L303 382.27" stroke="white" stroke-width="2" stroke-miterlimit="10"/>
<path opacity="0.77" d="M450.52 242.77L311.02 382.27" stroke="white" stroke-width="2" stroke-miterlimit="10"/>
<path opacity="0.77" d="M458.54 242.77L319.04 382.27" stroke="white" stroke-width="2" stroke-miterlimit="10"/>
<path opacity="0.77" d="M466.55 242.77L327.05 382.27" stroke="white" stroke-width="2" stroke-miterlimit="10"/>
<path opacity="0.77" d="M474.57 242.77L335.07 382.27" stroke="white" stroke-width="2" stroke-miterlimit="10"/>
<path opacity="0.77" d="M482.59 242.77L343.09 382.27" stroke="white" stroke-width="2" stroke-miterlimit="10"/>
<path opacity="0.77" d="M490.61 242.77L351.11 382.27" stroke="white" stroke-width="2" stroke-miterlimit="10"/>
<path opacity="0.77" d="M498.62 242.77L359.12 382.27" stroke="white" stroke-width="2" stroke-miterlimit="10"/>
<path opacity="0.77" d="M506.64 242.77L367.14 382.27" stroke="white" stroke-width="2" stroke-miterlimit="10"/>
</g>
</g>
<g opacity="0.81">
<g opacity="0.81">
<path opacity="0.81" d="M659.08 340.3L328.01 671.37" stroke="white" stroke-width="2" stroke-miterlimit="10"/>
<path opacity="0.81" d="M667 340.3L335.93 671.37" stroke="white" stroke-width="2" stroke-miterlimit="10"/>
<path opacity="0.81" d="M674.93 340.3L343.85 671.37" stroke="white" stroke-width="2" stroke-miterlimit="10"/>
<path opacity="0.81" d="M682.85 340.3L351.78 671.37" stroke="white" stroke-width="2" stroke-miterlimit="10"/>
<path opacity="0.81" d="M690.77 340.3L359.7 671.37" stroke="white" stroke-width="2" stroke-miterlimit="10"/>
<path opacity="0.81" d="M698.7 340.3L367.62 671.37" stroke="white" stroke-width="2" stroke-miterlimit="10"/>
<path opacity="0.81" d="M706.62 340.3L375.55 671.37" stroke="white" stroke-width="2" stroke-miterlimit="10"/>
<path opacity="0.81" d="M714.54 340.3L383.47 671.37" stroke="white" stroke-width="2" stroke-miterlimit="10"/>
<path opacity="0.81" d="M722.47 340.3L391.4 671.37" stroke="white" stroke-width="2" stroke-miterlimit="10"/>
<path opacity="0.81" d="M730.39 340.3L399.32 671.37" stroke="white" stroke-width="2" stroke-miterlimit="10"/>
<path opacity="0.81" d="M738.32 340.3L407.24 671.37" stroke="white" stroke-width="2" stroke-miterlimit="10"/>
<path opacity="0.81" d="M746.24 340.3L415.17 671.37" stroke="white" stroke-width="2" stroke-miterlimit="10"/>
<path opacity="0.81" d="M754.16 340.3L423.09 671.37" stroke="white" stroke-width="2" stroke-miterlimit="10"/>
<path opacity="0.81" d="M762.09 340.3L431.01 671.37" stroke="white" stroke-width="2" stroke-miterlimit="10"/>
<path opacity="0.81" d="M770.01 340.3L438.94 671.37" stroke="white" stroke-width="2" stroke-miterlimit="10"/>
<path opacity="0.81" d="M777.93 340.3L446.86 671.37" stroke="white" stroke-width="2" stroke-miterlimit="10"/>
<path opacity="0.81" d="M785.86 340.3L454.78 671.37" stroke="white" stroke-width="2" stroke-miterlimit="10"/>
<path opacity="0.81" d="M793.78 340.3L462.71 671.37" stroke="white" stroke-width="2" stroke-miterlimit="10"/>
<path opacity="0.81" d="M801.7 340.3L470.63 671.37" stroke="white" stroke-width="2" stroke-miterlimit="10"/>
<path opacity="0.81" d="M809.63 340.3L478.56 671.37" stroke="white" stroke-width="2" stroke-miterlimit="10"/>
<path opacity="0.81" d="M817.55 340.3L486.48 671.37" stroke="white" stroke-width="2" stroke-miterlimit="10"/>
<path opacity="0.81" d="M825.48 340.3L494.4 671.37" stroke="white" stroke-width="2" stroke-miterlimit="10"/>
<path opacity="0.81" d="M833.4 340.3L502.33 671.37" stroke="white" stroke-width="2" stroke-miterlimit="10"/>
<path opacity="0.81" d="M841.32 340.3L510.25 671.37" stroke="white" stroke-width="2" stroke-miterlimit="10"/>
<path opacity="0.81" d="M849.25 340.3L518.17 671.37" stroke="white" stroke-width="2" stroke-miterlimit="10"/>
<path opacity="0.81" d="M857.17 340.3L526.1 671.37" stroke="white" stroke-width="2" stroke-miterlimit="10"/>
<path opacity="0.81" d="M865.09 340.3L534.02 671.37" stroke="white" stroke-width="2" stroke-miterlimit="10"/>
<path opacity="0.81" d="M873.02 340.3L541.94 671.37" stroke="white" stroke-width="2" stroke-miterlimit="10"/>
<path opacity="0.81" d="M880.94 340.3L549.87 671.37" stroke="white" stroke-width="2" stroke-miterlimit="10"/>
<path opacity="0.81" d="M888.86 340.3L557.79 671.37" stroke="white" stroke-width="2" stroke-miterlimit="10"/>
<path opacity="0.81" d="M896.79 340.3L565.72 671.37" stroke="white" stroke-width="2" stroke-miterlimit="10"/>
<path opacity="0.81" d="M904.71 340.3L573.64 671.37" stroke="white" stroke-width="2" stroke-miterlimit="10"/>
<path opacity="0.81" d="M912.64 340.3L581.56 671.37" stroke="white" stroke-width="2" stroke-miterlimit="10"/>
<path opacity="0.81" d="M920.56 340.3L589.49 671.37" stroke="white" stroke-width="2" stroke-miterlimit="10"/>
<path opacity="0.81" d="M928.48 340.3L597.41 671.37" stroke="white" stroke-width="2" stroke-miterlimit="10"/>
<path opacity="0.81" d="M936.41 340.3L605.33 671.37" stroke="white" stroke-width="2" stroke-miterlimit="10"/>
<path opacity="0.81" d="M944.33 340.3L613.26 671.37" stroke="white" stroke-width="2" stroke-miterlimit="10"/>
<path opacity="0.81" d="M952.25 340.3L621.18 671.37" stroke="white" stroke-width="2" stroke-miterlimit="10"/>
<path opacity="0.81" d="M960.18 340.3L629.1 671.37" stroke="white" stroke-width="2" stroke-miterlimit="10"/>
<path opacity="0.81" d="M968.1 340.3L637.03 671.37" stroke="white" stroke-width="2" stroke-miterlimit="10"/>
<path opacity="0.81" d="M976.02 340.3L644.95 671.37" stroke="white" stroke-width="2" stroke-miterlimit="10"/>
<path opacity="0.81" d="M983.95 340.3L652.88 671.37" stroke="white" stroke-width="2" stroke-miterlimit="10"/>
<path opacity="0.81" d="M991.87 340.3L660.8 671.37" stroke="white" stroke-width="2" stroke-miterlimit="10"/>
<path opacity="0.81" d="M999.8 340.3L668.72 671.37" stroke="white" stroke-width="2" stroke-miterlimit="10"/>
<path opacity="0.81" d="M1007.72 340.3L676.65 671.37" stroke="white" stroke-width="2" stroke-miterlimit="10"/>
</g>
</g>
<g opacity="0.72">
<path opacity="0.5" d="M-15.6727 168.794L-172.649 325.77L-15.6727 482.746L141.303 325.77L-15.6727 168.794Z" stroke="white" stroke-width="50" stroke-miterlimit="10"/>
<path opacity="0.5" d="M750.322 11.8207L593.345 168.797L750.322 325.773L907.298 168.797L750.322 11.8207Z" stroke="white" stroke-width="50" stroke-miterlimit="10"/>
<path opacity="0.5" d="M375.321 384.615L218.345 541.592L375.321 698.568L532.298 541.592L375.321 384.615Z" stroke="white" stroke-width="30" stroke-miterlimit="10"/>
</g>
<path opacity="0.5" d="M80.03 340.11C94.94 355.02 94.94 379.2 80.03 394.12L-86.13 560.28C-101.04 575.19 -125.22 575.19 -140.14 560.28C-155.05 545.37 -155.05 521.19 -140.14 506.27L26.02 340.11C40.94 325.2 65.12 325.2 80.03 340.11Z" fill="url(#paint0_linear_5_2047)"/>
<path opacity="0.5" d="M254.25 324.91C270.46 341.12 270.46 367.39 254.25 383.6L82.96 554.88C66.75 571.09 40.48 571.09 24.27 554.88C8.06005 538.67 8.06005 512.4 24.27 496.19L195.55 324.91C211.76 308.7 238.04 308.7 254.25 324.91Z" fill="url(#paint1_linear_5_2047)"/>
<path opacity="0.5" d="M248.02 437.67C255.74 445.39 255.74 457.9 248.02 465.61L170.38 543.25C162.66 550.97 150.15 550.97 142.44 543.25C134.72 535.53 134.72 523.02 142.44 515.31L220.08 437.67C227.8 429.96 240.31 429.96 248.02 437.67Z" fill="url(#paint2_linear_5_2047)"/>
<path opacity="0.5" d="M184.37 396.12C194.69 406.45 194.69 423.19 184.37 433.51L30.0799 587.8C19.7499 598.13 3.00995 598.13 -7.31005 587.8C-17.63 577.47 -17.63 560.73 -7.31005 550.41L146.98 396.12C157.3 385.79 174.04 385.79 184.37 396.12Z" fill="url(#paint3_linear_5_2047)"/>
<path opacity="0.5" d="M584.34 230.77C568.13 214.56 568.13 188.29 584.34 172.08L755.62 0.800001C771.83 -15.41 798.1 -15.41 814.31 0.800001C830.52 17.01 830.52 43.28 814.31 59.49L643.03 230.77C626.82 246.97 600.55 246.97 584.34 230.77Z" fill="url(#paint4_linear_5_2047)"/>
<path opacity="0.5" d="M581.17 88.32C573.45 80.6 573.45 68.09 581.17 60.38L658.81 -17.26C666.53 -24.98 679.04 -24.98 686.75 -17.26C694.47 -9.53999 694.47 2.97 686.75 10.68L609.11 88.32C601.4 96.03 588.89 96.03 581.17 88.32Z" fill="url(#paint5_linear_5_2047)"/>
<path opacity="0.5" d="M707.58 231.62C699.86 223.9 699.86 211.39 707.58 203.68L785.22 126.04C792.94 118.32 805.45 118.32 813.16 126.04C820.88 133.76 820.88 146.27 813.16 153.98L735.52 231.62C727.8 239.34 715.29 239.34 707.58 231.62Z" fill="url(#paint6_linear_5_2047)"/>
<g opacity="0.49">
<path opacity="0.49" d="M165.14 87.96C167.393 87.96 169.22 86.1333 169.22 83.88C169.22 81.6267 167.393 79.8 165.14 79.8C162.887 79.8 161.06 81.6267 161.06 83.88C161.06 86.1333 162.887 87.96 165.14 87.96Z" stroke="white" stroke-width="2" stroke-miterlimit="10" stroke-linecap="round" stroke-linejoin="round"/>
<path opacity="0.49" d="M444.28 360.92C444.28 363.17 442.45 365 440.2 365C437.95 365 436.12 363.17 436.12 360.92C436.12 358.67 437.95 356.84 440.2 356.84C442.45 356.84 444.28 358.67 444.28 360.92Z" stroke="white" stroke-width="2" stroke-miterlimit="10" stroke-linecap="round" stroke-linejoin="round"/>
<path opacity="0.49" d="M316.7 159.35C316.7 161.6 314.87 163.43 312.62 163.43C310.37 163.43 308.54 161.6 308.54 159.35C308.54 157.1 310.37 155.27 312.62 155.27C314.88 155.27 316.7 157.09 316.7 159.35Z" stroke="white" stroke-width="2" stroke-miterlimit="10" stroke-linecap="round" stroke-linejoin="round"/>
<path opacity="0.49" d="M29.9398 292.28C29.9398 294.53 28.1098 296.36 25.8598 296.36C23.6098 296.36 21.7798 294.53 21.7798 292.28C21.7798 290.03 23.6098 288.2 25.8598 288.2C28.1198 288.2 29.9398 290.03 29.9398 292.28Z" stroke="white" stroke-width="2" stroke-miterlimit="10" stroke-linecap="round" stroke-linejoin="round"/>
<path opacity="0.49" d="M71.2398 172.72C71.2398 174.97 69.4099 176.8 67.1599 176.8C64.9099 176.8 63.0798 174.97 63.0798 172.72C63.0798 170.47 64.9099 168.64 67.1599 168.64C69.4099 168.64 71.2398 170.47 71.2398 172.72Z" stroke="white" stroke-width="2" stroke-miterlimit="10" stroke-linecap="round" stroke-linejoin="round"/>
<g opacity="0.49">
<path opacity="0.49" d="M392.86 118.83V125.97" stroke="white" stroke-width="2" stroke-miterlimit="10" stroke-linecap="round" stroke-linejoin="round"/>
<path opacity="0.49" d="M396.43 122.4H389.3" stroke="white" stroke-width="2" stroke-miterlimit="10" stroke-linecap="round" stroke-linejoin="round"/>
</g>
<g opacity="0.49">
<path opacity="0.49" d="M692.9 357.36V364.49" stroke="white" stroke-width="2" stroke-miterlimit="10" stroke-linecap="round" stroke-linejoin="round"/>
<path opacity="0.49" d="M696.47 360.92H689.34" stroke="white" stroke-width="2" stroke-miterlimit="10" stroke-linecap="round" stroke-linejoin="round"/>
</g>
<g opacity="0.49">
<path opacity="0.49" d="M189.61 292.76V299.89" stroke="white" stroke-width="2" stroke-miterlimit="10" stroke-linecap="round" stroke-linejoin="round"/>
<path opacity="0.49" d="M193.18 296.32H186.05" stroke="white" stroke-width="2" stroke-miterlimit="10" stroke-linecap="round" stroke-linejoin="round"/>
</g>
<g opacity="0.49">
<g opacity="0.49">
<path opacity="0.49" d="M554.25 442.64V449.77" stroke="white" stroke-width="2" stroke-miterlimit="10" stroke-linecap="round" stroke-linejoin="round"/>
<path opacity="0.49" d="M557.81 446.2H550.68" stroke="white" stroke-width="2" stroke-miterlimit="10" stroke-linecap="round" stroke-linejoin="round"/>
</g>
<g opacity="0.49">
<path opacity="0.49" d="M532.69 442.64V449.77" stroke="white" stroke-width="2" stroke-miterlimit="10" stroke-linecap="round" stroke-linejoin="round"/>
<path opacity="0.49" d="M536.25 446.2H529.12" stroke="white" stroke-width="2" stroke-miterlimit="10" stroke-linecap="round" stroke-linejoin="round"/>
</g>
<g opacity="0.49">
<path opacity="0.49" d="M511.13 442.64V449.77" stroke="white" stroke-width="2" stroke-miterlimit="10" stroke-linecap="round" stroke-linejoin="round"/>
<path opacity="0.49" d="M514.69 446.2H507.56" stroke="white" stroke-width="2" stroke-miterlimit="10" stroke-linecap="round" stroke-linejoin="round"/>
</g>
</g>
<g opacity="0.49">
<g opacity="0.49">
<path opacity="0.49" d="M71.24 123.64V130.77" stroke="white" stroke-width="2" stroke-miterlimit="10" stroke-linecap="round" stroke-linejoin="round"/>
<path opacity="0.49" d="M74.7999 127.21H67.6699" stroke="white" stroke-width="2" stroke-miterlimit="10" stroke-linecap="round" stroke-linejoin="round"/>
</g>
<g opacity="0.49">
<path opacity="0.49" d="M49.6799 123.64V130.77" stroke="white" stroke-width="2" stroke-miterlimit="10" stroke-linecap="round" stroke-linejoin="round"/>
<path opacity="0.49" d="M53.2499 127.21H46.1099" stroke="white" stroke-width="2" stroke-miterlimit="10" stroke-linecap="round" stroke-linejoin="round"/>
</g>
<g opacity="0.49">
<path opacity="0.49" d="M28.1199 123.64V130.77" stroke="white" stroke-width="2" stroke-miterlimit="10" stroke-linecap="round" stroke-linejoin="round"/>
<path opacity="0.49" d="M31.6898 127.21H24.5598" stroke="white" stroke-width="2" stroke-miterlimit="10" stroke-linecap="round" stroke-linejoin="round"/>
</g>
</g>
<path opacity="0.49" d="M274.4 272.14L279.95 262.53H268.85L274.4 272.14Z" stroke="white" stroke-width="2" stroke-miterlimit="10" stroke-linecap="round" stroke-linejoin="round"/>
<path opacity="0.49" d="M539.82 125.97L534.27 135.58H545.37L539.82 125.97Z" stroke="white" stroke-width="2" stroke-miterlimit="10" stroke-linecap="round" stroke-linejoin="round"/>
<path opacity="0.49" d="M265.78 417.73C268.2 415.31 272.44 419.55 274.86 417.13C277.28 414.71 273.04 410.47 275.46 408.05C277.88 405.63 282.12 409.87 284.54 407.45C286.96 405.03 282.72 400.79 285.13 398.37C287.55 395.95 291.79 400.19 294.21 397.77C296.63 395.35 292.39 391.11 294.81 388.68C297.23 386.26 301.47 390.5 303.9 388.08" stroke="white" stroke-width="2" stroke-miterlimit="10" stroke-linecap="round" stroke-linejoin="round"/>
<path opacity="0.49" d="M476.57 397.96C478.99 395.54 483.23 399.78 485.65 397.36C488.07 394.94 483.83 390.7 486.25 388.28C488.67 385.86 492.91 390.1 495.33 387.68C497.75 385.26 493.51 381.02 495.92 378.6C498.34 376.18 502.58 380.42 505 378C507.42 375.58 503.18 371.34 505.6 368.91C508.02 366.49 512.26 370.73 514.69 368.31" stroke="white" stroke-width="2" stroke-miterlimit="10" stroke-linecap="round" stroke-linejoin="round"/>
<path opacity="0.49" d="M488.5 123.46C490.92 121.04 495.16 125.28 497.58 122.86C500 120.44 495.76 116.2 498.18 113.78C500.6 111.36 504.84 115.6 507.26 113.18C509.68 110.76 505.44 106.52 507.85 104.1C510.27 101.68 514.51 105.92 516.93 103.5C519.35 101.08 515.11 96.84 517.53 94.41C519.95 91.99 524.19 96.23 526.62 93.81" stroke="white" stroke-width="2" stroke-miterlimit="10" stroke-linecap="round" stroke-linejoin="round"/>
</g>
<defs>
<linearGradient id="paint0_linear_5_2047" x1="80.035" y1="340.113" x2="-140.134" y2="560.282" gradientUnits="userSpaceOnUse">
<stop stop-color="white"/>
<stop offset="1" stop-opacity="0"/>
</linearGradient>
<linearGradient id="paint1_linear_5_2047" x1="254.245" y1="324.907" x2="24.2736" y2="554.879" gradientUnits="userSpaceOnUse">
<stop stop-color="white"/>
<stop offset="1" stop-opacity="0"/>
</linearGradient>
<linearGradient id="paint2_linear_5_2047" x1="248.023" y1="437.673" x2="142.437" y2="543.259" gradientUnits="userSpaceOnUse">
<stop stop-color="white"/>
<stop offset="1" stop-opacity="0"/>
</linearGradient>
<linearGradient id="paint3_linear_5_2047" x1="197.092" y1="383.398" x2="110.871" y2="469.618" gradientUnits="userSpaceOnUse">
<stop stop-color="white"/>
<stop offset="1" stop-opacity="0"/>
</linearGradient>
<linearGradient id="paint4_linear_5_2047" x1="584.339" y1="230.765" x2="814.311" y2="0.793643" gradientUnits="userSpaceOnUse">
<stop stop-color="white"/>
<stop offset="1" stop-opacity="0"/>
</linearGradient>
<linearGradient id="paint5_linear_5_2047" x1="581.17" y1="88.3152" x2="686.756" y2="-17.2708" gradientUnits="userSpaceOnUse">
<stop stop-color="white"/>
<stop offset="1" stop-opacity="0"/>
</linearGradient>
<linearGradient id="paint6_linear_5_2047" x1="707.575" y1="231.619" x2="813.161" y2="126.033" gradientUnits="userSpaceOnUse">
<stop stop-color="white"/>
<stop offset="1" stop-opacity="0"/>
</linearGradient>
</defs>
</svg>
