<svg width="40" height="40" viewBox="0 0 40 40" fill="none" xmlns="http://www.w3.org/2000/svg">
<path d="M10.0006 0.5H29.3993C34.6586 0.5 38.8999 4.79498 38.8999 10.1529V29.8471C38.8999 35.205 34.6586 39.5 29.3993 39.5H10.0006C4.74133 39.5 0.5 35.205 0.5 29.8471V10.1529C0.5 4.79498 4.74133 0.5 10.0006 0.5Z" fill="#0B0E11" stroke="#86EFAC"/>
<path d="M14 25V18H28V11H14L28 25H21M14 25L21 32V25M14 25H21Z" fill="#86EFAC"/>
<path d="M14 25V18H28V11H14L28 25H21M14 25L21 32V25M14 25H21" stroke="#86EFAC" stroke-width="2" stroke-linecap="round" stroke-linejoin="round"/>
</svg>
